HIERARCHY
ROOT Hips
{
  OFFSET -102.467 93.6631 130.069
  CHANNELS 6 Xposition Yposition Zposition Zrotation Xrotation Yrotation
  JOINT LeftUpLeg
  {
    OFFSET 8.64259 1.95398 -2.38835
    CHANNELS 3 Zrotation Xrotation Yrotation
    JOINT LeftLeg
    {
      OFFSET 43.7702 0 0
      CHANNELS 3 Zrotation Xrotation Yrotation
      JOINT LeftFoot
      {
        OFFSET 40.6238 0 0
        CHANNELS 3 Zrotation Xrotation Yrotation
        JOINT LeftToeBase
        {
          OFFSET 12.7242 0 0
          CHANNELS 3 Zrotation Xrotation Yrotation
          End Site
          {
            OFFSET 0 0 0
          }
        }
      }
    }
  }
  JOINT RightUpLeg
  {
    OFFSET -8.2249 1.95398 -2.59336
    CHANNELS 3 Zrotation Xrotation Yrotation
    JOINT RightLeg
    {
      OFFSET 43.5653 0 0
      CHANNELS 3 Zrotation Xrotation Yrotation
      JOINT RightFoot
      {
        OFFSET 40.6238 0 0
        CHANNELS 3 Zrotation Xrotation Yrotation
        JOINT RightToeBase
        {
          OFFSET 12.7242 0 0
          CHANNELS 3 Zrotation Xrotation Yrotation
          End Site
          {
            OFFSET 0 0 0
          }
        }
      }
    }
  }
  JOINT Spine
  {
    OFFSET 0.165834 0.87714 6.61349
    CHANNELS 3 Zrotation Xrotation Yrotation
    JOINT Spine1
    {
      OFFSET 7.38963 1.71661e-005 0
      CHANNELS 3 Zrotation Xrotation Yrotation
      JOINT Spine2
      {
        OFFSET 11.9445 1.14441e-005 0
        CHANNELS 3 Zrotation Xrotation Yrotation
        JOINT Spine3
        {
          OFFSET 14.7254 4.19617e-005 0
          CHANNELS 3 Zrotation Xrotation Yrotation
          JOINT Spine4
          {
            OFFSET 10.9679 0 0
            CHANNELS 3 Zrotation Xrotation Yrotation
            JOINT RightShoulder
            {
              OFFSET 2.46616 -1.6653 3.69651
              CHANNELS 3 Zrotation Xrotation Yrotation
              JOINT RightArm
              {
                OFFSET 13.0012 0 0
                CHANNELS 3 Zrotation Xrotation Yrotation
                JOINT RightForeArm
                {
                  OFFSET 28.7848 1.52588e-005 0
                  CHANNELS 3 Zrotation Xrotation Yrotation
                  JOINT RightHand
                  {
                    OFFSET 26.5688 1.52588e-005 0
                    CHANNELS 3 Zrotation Xrotation Yrotation
                    End Site
                    {
                      OFFSET 0 0 0
                    }
                  }
                }
              }
            }
            JOINT LeftShoulder
            {
              OFFSET 2.38034 -1.29275 -3.7523
              CHANNELS 3 Zrotation Xrotation Yrotation
              JOINT LeftArm
              {
                OFFSET 16.3182 6.10351e-005 0
                CHANNELS 3 Zrotation Xrotation Yrotation
                JOINT LeftForeArm
                {
                  OFFSET 27.0901 0 0
                  CHANNELS 3 Zrotation Xrotation Yrotation
                  JOINT LeftHand
                  {
                    OFFSET 24.5451 1.52588e-005 0
                    CHANNELS 3 Zrotation Xrotation Yrotation
                    End Site
                    {
                      OFFSET 0 0 0
                    }
                  }
                }
              }
            }
            JOINT Neck
            {
              OFFSET 5.0226 -0.0266342 0
              CHANNELS 3 Zrotation Xrotation Yrotation
              JOINT Head
              {
                OFFSET 6.69363 2.86102e-005 0
                CHANNELS 3 Zrotation Xrotation Yrotation
                End Site
                {
                  OFFSET 0 0 0
                }
              }
            }
          }
        }
      }
    }
  }
}
MOTION
Frames:	11
Frame Time:	0.0416667
-307.854 45.3024 -273.739 93.275 -44.9437 98.678 -117.15 -54.6395 102.761 -147.127 -11.6887 50.3379 -87.9631 -30.5397 -23.0763 -44.6115 -17.6162 41.1839 160.31 42.0115 112.71 -26.4465 82.298 -106.985 -2.34789 18.8025 85.2033 11.1753 3.45938 -162.872 1.15521 5.34857 -90.868 16.1926 1.83942 -2.05452 4.52118 1.74727 -2.13347 -18.0174 2.37179 -1.40672 1.99526 2.3718 -1.40672 137.422 -32.9722 -18.0358 29.0951 -48.2062 45.7348 -47.2094 40.4388 -119.707 4.34313 -2.18066 -51.9783 -46.4742 -41.4076 147.642 92.2712 45.3572 -127.124 -87.8013 -5.26363 -1.21409 92.6357 -53.756 -54.1369 81.9963 8.80198 -0.865661 10.0775 11.4173 40.9525 
-308.542 45.4938 -274.297 93.0517 -44.8834 98.7678 -120.703 -52.7541 101.38 -142.576 -11.2231 50.1414 -86.3077 -32.7485 -15.7849 -44.1588 -18.4239 42.6195 159.529 43.178 113.58 -25.5417 82.3629 -107.729 -1.94821 18.2293 84.6071 10.8608 -0.688422 -162.67 1.14368 5.36966 -90.8837 16.1501 1.80929 -2.08005 4.47866 1.71598 -2.15764 -18.0593 2.3507 -1.44015 1.95339 2.35068 -1.44016 137.756 -33.3731 -17.8302 27.2834 -47.4641 45.1475 -47.5387 40.965 -120.22 4.47041 -2.32222 -53.564 -46.1331 -41.7658 147.946 92.6339 44.2353 -127.18 -88.2216 -4.56125 -2.10734 93.6079 -53.5602 -53.2118 82.3056 8.80206 -0.832397 11.1986 11.7457 40.8472 
-310.451 46.1693 -275.803 92.4027 -44.7055 99.0249 -129.563 -48.392 99.3139 -131.434 -9.23532 47.856 -79.5539 -37.7967 3.58613 -42.5758 -20.6224 46.8415 157.247 46.1187 116.042 -28.7455 82.7526 -103.775 -0.829757 17.2249 83.2343 10.2534 -9.67261 -162.046 1.1108 5.4282 -90.9301 16.0322 1.72229 -2.15607 4.36048 1.62575 -2.22975 -18.1755 2.29056 -1.53886 1.8371 2.29058 -1.53885 138.713 -34.5069 -17.2442 22.0477 -45.2211 43.5083 -48.3217 42.481 -121.761 4.37818 -2.53753 -58.1798 -45.1483 -42.7943 148.811 93.5727 41.119 -127.177 -89.2815 -2.44175 -4.55835 96.3823 -52.9154 -50.5545 83.1651 8.80061 -0.732442 14.5164 12.693 40.5472 
-313.288 47.4718 -277.96 91.3534 -44.4089 99.4297 -139.554 -44.9068 99.8098 -118.721 -5.05549 41.7338 -68.1499 -41.4074 26.9119 -39.2295 -23.7183 53.9072 153.768 49.5841 119.62 -29.2615 83.1658 -101.307 0.817334 14.4774 82.6141 9.67618 -18.3258 -161.856 1.05919 5.51436 -91.0073 15.8584 1.5837 -2.28439 4.18631 1.48165 -2.35184 -18.3466 2.19694 -1.70296 1.66604 2.19694 -1.70296 140.208 -36.2385 -16.3323 13.6778 -41.3313 41.0836 -48.5386 44.6424 -124.733 2.91008 -2.12201 -65.4145 -43.5776 -44.413 150.156 94.8624 36.4929 -126.819 -90.5284 1.12355 -8.14187 100.613 -51.672 -46.4598 84.443 8.83087 -0.564755 20.0787 14.1831 40.1002 
-316.897 49.2535 -280.673 89.9223 -43.9888 99.9601 -146.355 -44.8776 103.68 -106.338 1.36724 33.9299 -58.7206 -41.8339 44.1056 -33.1469 -26.9514 64.2777 149.777 52.5399 123.494 -38.9839 83.7977 -88.472 3.15968 10.9174 86.0709 8.31518 -25.2043 -165.279 0.991781 5.61598 -91.116 15.653 1.39859 -2.46873 3.9804 1.28864 -2.52785 -18.5481 2.07575 -1.93451 1.4645 2.07575 -1.93451 142.141 -38.4094 -15.154 2.50092 -35.5639 38.2834 -46.0101 46.4097 -130.283 -0.784201 0.0860309 -74.2437 -41.4755 -46.5324 151.904 96.4014 30.8994 -125.908 -91.4209 6.03875 -12.4775 105.743 -49.6754 -41.425 86.024 9.15074 -0.360281 27.945 15.9868 39.7214 
-321.466 51.0733 -284.267 88.1265 -43.4402 100.592 -147.662 -47.8921 110.47 -93.3344 9.78934 27.0801 -54.7177 -40.8207 51.4886 -23.1672 -28.8274 78.6876 146.153 54.5162 126.763 -64.5288 83.6518 -58.8659 8.84684 8.39005 98.6863 5.29667 -21.6464 -179.721 0.911524 5.72069 -91.2569 15.4406 1.17202 -2.71204 3.76722 1.05156 -2.76095 -18.7556 1.93273 -2.23477 1.25707 1.93273 -2.23477 144.416 -40.8611 -13.767 -11.0227 -27.7849 35.7063 -39.1814 46.1301 -139.031 -6.36699 4.8518 -83.1257 -38.8855 -49.0558 153.99 98.2304 24.8473 -124.39 -91.4462 12.0158 -17.378 111.107 -46.8541 -36.0551 87.8779 10.8337 -0.28562 37.7249 17.4338 40.4565 
-327.24 52.3849 -289.309 85.9884 -42.7623 101.3 -142.901 -52.0555 120.192 -79.1247 19.3941 21.8156 -54.5611 -38.94 50.159 -8.93709 -26.6069 97.0552 143.266 54.9138 129.363 -92.1853 79.7823 -25.2985 35.4889 15.5633 127.587 57.0705 56.0633 125.23 0.820772 5.81714 -91.4292 15.2433 0.909454 -3.01455 3.56911 0.77596 -3.05161 -18.9464 1.77312 -2.60231 1.06622 1.77314 -2.60231 146.931 -43.446 -12.2276 -26.2661 -18.2397 34.0743 -29.611 42.5448 -148.968 -12.9234 11.414 -91.208 -35.8385 -51.8796 156.381 100.46 18.7726 -122.307 -90.1682 18.6068 -22.8779 116.116 -43.2676 -30.8862 90.0915 12.0173 -0.11831 49.0352 19.9614 41.2735 
-333.68 53.3039 -295.808 83.544 -41.9623 102.057 -132.562 -55.6174 132.97 -62.2123 28.6485 17.2673 -55.9925 -34.7158 42.3796 8.0504 -16.1029 116.709 138.591 53.7017 134.557 -99.4359 70.2204 -8.57273 120.859 40.113 106.047 131.516 -1.23212 16.1387 0.722653 5.896 -91.6307 15.0798 0.617565 -3.37271 3.40455 0.468614 -3.39658 -19.1021 1.6022 -3.03174 0.910553 1.60221 -3.03174 149.583 -46.0334 -10.5943 -42.4436 -7.82655 34.0151 -20.6544 36.2268 -156.749 -19.942 20.1357 -97.653 -32.3524 -54.8967 159.067 103.193 13.0258 -119.74 -87.2365 25.2562 -29.1734 120.381 -39.1006 -26.264 94.3265 -8.65786 1.30977 72.3276 28.8278 19.2999 
-340.706 54.5391 -302.819 80.8445 -41.0572 102.838 -117.556 -58.0974 149.561 -40.2342 39.3796 11.9433 -59.2315 -28.1383 26.4785 26.171 8.63576 130.111 133.62 52.8875 140.053 -92.0528 53.7007 -1.74034 177.368 2.4116 86.1328 81.1616 -60.4232 -55.7586 0.619888 5.95103 -91.8566 14.9621 0.3041 -3.77851 3.28565 0.13762 -3.78822 -19.2104 1.42496 -3.51304 0.802286 1.42493 -3.51306 152.276 -48.5232 -8.92556 -58.7206 2.08679 35.7393 -14.0691 29.303 -161.02 -27.7727 29.7714 -100.626 -28.4193 -58.0041 162.08 106.48 7.86582 -116.777 -82.4159 31.3648 -36.5055 123.742 -34.6069 -22.3246 -100.494 -0.574487 177.854 86.2077 -28.3829 -149.496 
-349.164 56.4851 -310.621 77.953 -40.0716 103.619 -92.6286 -58.7763 176.273 -2.42179 50.0015 0.786443 -64.7045 -18.8054 4.69452 53.4103 42.4698 119.015 129.945 52.7615 143.886 -76.9291 40.7366 1.393 -173.138 -21.5466 97.4457 39.3174 -51.3084 -101.467 0.515417 5.97936 -92.1008 14.8958 -0.0225993 -4.22038 3.21802 -0.208144 -4.21533 -19.2656 1.2458 -4.0327 0.747031 1.24578 -4.03272 154.92 -50.8477 -7.27888 -74.3346 10.3455 38.9318 -9.91199 23.7056 -162.403 -37.294 39.3392 -99.4564 -23.9975 -61.1088 165.487 110.293 3.46986 -113.508 -75.6771 36.3605 -44.9818 126.202 -30.0456 -19.0576 -96.8828 7.32573 178.848 72.0595 -28.602 -157.564 
-359.571 58.4138 -319.979 74.9411 -39.0353 104.378 -93.5077 -55.4196 177.168 -0.658912 51.8914 0.194793 -52.9745 -17.2526 -7.47671 99.9295 51.7137 73.7276 131.218 51.0719 143.92 -52.5384 36.3972 3.35496 -176.351 -28.0479 113.699 31.6659 -44.4683 -109.251 0.411779 5.98073 -92.3557 14.8814 -0.353886 -4.6841 3.20214 -0.559478 -4.66407 -19.2676 1.06871 -4.5745 0.74511 1.06871 -4.57451 157.435 -52.9671 -5.71334 -88.6157 16.4616 42.945 -7.8239 20.3188 -162.02 -49.8367 47.6549 -93.03 -19.0112 -64.1258 169.396 114.538 -0.0585801 -110.042 -67.3512 39.7836 -54.3749 127.849 -25.6459 -16.3872 -93.6134 24.9856 -178.705 56.8134 -22.5267 -174.555 
